<mxfile host="65bd71144e">
    <diagram id="pIaEtrtLPv3HG8r1JEND" name="Page-1">
        <mxGraphModel dx="598" dy="470" grid="1" gridSize="10" guides="1" tooltips="1" connect="1" arrows="1" fold="1" page="1" pageScale="1" pageWidth="850" pageHeight="1100" math="0" shadow="0">
            <root>
                <mxCell id="0"/>
                <mxCell id="1" parent="0"/>
                <mxCell id="2" value="" style="rounded=0;whiteSpace=wrap;html=1;" parent="1" vertex="1">
                    <mxGeometry x="60" y="20" width="530" height="410" as="geometry"/>
                </mxCell>
                <mxCell id="6" value="Calculate" style="labelPosition=center;verticalLabelPosition=middle;align=center;html=1;shape=mxgraph.basic.button;dx=10;" parent="1" vertex="1">
                    <mxGeometry x="275" y="240" width="100" height="40" as="geometry"/>
                </mxCell>
                <mxCell id="7" value="Tom and Jerry&amp;nbsp;" style="text;html=1;align=center;verticalAlign=middle;resizable=0;points=[];autosize=1;strokeColor=none;fillColor=none;" vertex="1" parent="1">
                    <mxGeometry x="840" y="80" width="90" height="20" as="geometry"/>
                </mxCell>
                <mxCell id="8" value="&lt;b&gt;&lt;font style=&quot;font-size: 22px&quot;&gt;Tom and Jerry&amp;nbsp;&lt;/font&gt;&lt;/b&gt;" style="text;html=1;align=center;verticalAlign=middle;resizable=0;points=[];autosize=1;strokeColor=none;fillColor=none;" vertex="1" parent="1">
                    <mxGeometry x="230" y="100" width="170" height="20" as="geometry"/>
                </mxCell>
                <mxCell id="9" value="Actor" style="shape=umlActor;verticalLabelPosition=bottom;verticalAlign=top;html=1;outlineConnect=0;fontSize=22;" vertex="1" parent="1">
                    <mxGeometry x="300" y="150" width="30" height="60" as="geometry"/>
                </mxCell>
            </root>
        </mxGraphModel>
    </diagram>
</mxfile>